<svg width="96" height="96" viewBox="0 0 96 96" fill="none" xmlns="http://www.w3.org/2000/svg">
<path fill-rule="evenodd" clip-rule="evenodd" d="M48 92C72.3005 92 92 72.3005 92 48C92 23.6995 72.3005 4 48 4C23.6995 4 4 23.6995 4 48C4 72.3005 23.6995 92 48 92ZM48 96C74.5097 96 96 74.5097 96 48C96 21.4903 74.5097 0 48 0C21.4903 0 0 21.4903 0 48C0 74.5097 21.4903 96 48 96Z" fill="white"/>
<path fill-rule="evenodd" clip-rule="evenodd" d="M69.7039 29.9029C70.586 30.5679 70.762 31.8219 70.0971 32.7039L45.5971 65.2039C45.2354 65.6836 44.6773 65.9754 44.077 65.9985C43.4767 66.0216 42.8978 65.7737 42.5003 65.3232L27.5003 48.3232C26.7695 47.495 26.8485 46.2311 27.6768 45.5003C28.505 44.7695 29.7689 44.8485 30.4997 45.6767L43.8782 60.8391L66.903 30.2961C67.5679 29.414 68.8219 29.238 69.7039 29.9029Z" fill="white"/>
</svg>
