<svg width="103" height="97" viewBox="0 0 103 97" fill="none" xmlns="http://www.w3.org/2000/svg">
<path fill-rule="evenodd" clip-rule="evenodd" d="M40.2896 7.33858C36.9942 3.84874 27.9125 -1.49375 16.1062 2.30601C14.0712 2.96095 13.616 5.47204 15.0095 6.87546L25.208 17.1466C26.859 18.8093 27.6161 19.993 27.7157 21.0907C27.8055 22.0802 27.3944 23.6317 24.9329 26.1116C22.4659 28.5962 20.9327 28.9999 19.9691 28.9112C18.8937 28.8122 17.7236 28.0574 16.0693 26.3914L5.87086 16.1203C4.45373 14.6931 1.94053 15.1885 1.29699 17.2167C-2.46929 29.0863 2.82381 38.2196 6.28983 41.5393C8.57126 43.8335 13.7167 48.3942 23.3014 48.1662C27.0758 48.0764 28.9495 48.1715 30.2751 48.5752C31.4585 48.9357 32.3385 49.5842 33.9633 51.2206L36.8621 48.3424C35.1372 46.6053 33.6621 45.3366 31.4653 44.6675C29.4107 44.0417 26.8793 43.9949 23.2043 44.0823C15.1724 44.2734 11.0449 40.5305 9.16936 38.6417L9.14953 38.6217L9.12915 38.6023C6.75205 36.3368 2.64142 29.6634 4.6047 20.6428L13.1706 29.2697C14.866 30.9772 16.9433 32.735 19.5947 32.979C22.3571 33.2333 25.0294 31.8113 27.8289 28.9927C27.8298 28.9918 27.8308 28.9908 27.8317 28.9899C30.6335 26.1673 32.0347 23.4842 31.784 20.7216C31.5431 18.0659 29.8054 15.9791 28.1067 14.2683L19.5095 5.60981C28.4578 3.62635 35.0807 7.76042 37.3325 10.157L37.3518 10.1775L37.3716 10.1975C39.2449 12.0842 42.9699 16.2479 42.7798 24.3539C42.6929 28.056 42.7398 30.5987 43.3591 32.6608C44.0212 34.8656 45.2774 36.3488 47.0037 38.0874L49.9025 35.2091C48.2791 33.5742 47.6317 32.6854 47.2715 31.486C46.8685 30.1439 46.7745 28.2502 46.8636 24.4497C47.0896 14.8136 42.5697 9.6384 40.2896 7.33858ZM93.7105 3.43751L102.781 12.5731L90.5981 30.7544L84.2887 31.1834L66.0218 49.5803C67.7658 52.6055 67.3513 56.5433 64.7783 59.1347L30.7749 93.3802C25.9925 98.1967 18.2327 98.1967 13.4504 93.3802C8.67602 88.5719 8.67602 80.7819 13.4504 75.9736L47.4538 41.728C50.0277 39.1358 53.9442 38.7133 56.9558 40.4603L75.2125 22.0735L75.6383 15.7208L93.7105 3.43751ZM60.0248 43.1671L63.3289 46.4947L82.4751 27.2122L88.3206 26.8148L97.5259 13.0778L93.2016 8.72266L79.581 17.9803L79.1863 23.8691L60.0248 43.1671ZM55.6971 44.6062C54.2196 43.1182 51.8301 43.1182 50.3526 44.6062L16.3492 78.8518C13.1564 82.0673 13.1564 87.2865 16.3492 90.502C19.5339 93.7094 24.6914 93.7094 27.8761 90.502L61.8795 56.2564C63.365 54.7603 63.365 52.3288 61.8795 50.8327L55.6971 44.6062ZM88.8887 80.1097L68.0624 59.1351L70.9612 56.2568L91.7874 77.2314C96.2773 81.7532 96.2773 89.0785 91.7874 93.6004C87.2896 98.1302 79.9912 98.1302 75.4934 93.6004L54.6671 72.6258L57.5659 69.7475L78.3921 90.7221C81.2923 93.6429 85.9884 93.6429 88.8887 90.7221C91.7968 87.7932 91.7968 83.0386 88.8887 80.1097Z" fill="white"/>
</svg>
